<svg width="40" height="40" viewBox="0 0 40 40" fill="none" xmlns="http://www.w3.org/2000/svg">
<path d="M25.72 19C25.72 20.22 24.82 21.22 23.68 21.22C22.56 21.22 21.64 20.22 21.64 19C21.64 17.78 22.54 16.78 23.68 16.78C24.82 16.78 25.72 17.78 25.72 19ZM16.38 16.78C15.24 16.78 14.34 17.78 14.34 19C14.34 20.22 15.26 21.22 16.38 21.22C17.52 21.22 18.42 20.22 18.42 19C18.44 17.78 17.52 16.78 16.38 16.78ZM37.5 4.12V40C32.4614 35.5473 34.0728 37.0213 28.22 31.58L29.28 35.28H6.6C4.34 35.28 2.5 33.44 2.5 31.16V4.12C2.5 1.84 4.34 0 6.6 0H33.4C35.66 0 37.5 1.84 37.5 4.12ZM31.8 23.08C31.8 16.64 28.92 11.42 28.92 11.42C26.04 9.26 23.3 9.32 23.3 9.32L23.02 9.64C26.42 10.68 28 12.18 28 12.18C23.2491 9.57617 17.6684 9.5757 13.06 11.6C12.32 11.94 11.88 12.18 11.88 12.18C11.88 12.18 13.54 10.6 17.14 9.56L16.94 9.32C16.94 9.32 14.2 9.26 11.32 11.42C11.32 11.42 8.44 16.64 8.44 23.08C8.44 23.08 10.12 25.98 14.54 26.12C14.54 26.12 15.28 25.22 15.88 24.46C13.34 23.7 12.38 22.1 12.38 22.1C12.6742 22.3059 13.1594 22.5729 13.2 22.6C16.5758 24.4905 21.3709 25.1098 25.68 23.3C26.38 23.04 27.16 22.66 27.98 22.12C27.98 22.12 26.98 23.76 24.36 24.5C24.96 25.26 25.68 26.12 25.68 26.12C30.1 25.98 31.8 23.08 31.8 23.08Z" fill="#242424"/>
</svg>
