<svg width="40" height="40" viewBox="0 0 40 40" fill="none" xmlns="http://www.w3.org/2000/svg">
<path d="M33.75 2.5H6.25C4.17969 2.5 2.5 4.17969 2.5 6.25V33.75C2.5 35.8203 4.17969 37.5 6.25 37.5H33.75C35.8203 37.5 37.5 35.8203 37.5 33.75V6.25C37.5 4.17969 35.8203 2.5 33.75 2.5ZM29.9297 14.9062C29.9453 15.125 29.9453 15.3516 29.9453 15.5703C29.9453 22.3438 24.7891 30.1484 15.3672 30.1484C12.4609 30.1484 9.76562 29.3047 7.5 27.8516C7.91406 27.8984 8.3125 27.9141 8.73438 27.9141C11.1328 27.9141 13.3359 27.1016 15.0938 25.7266C12.8438 25.6797 10.9531 24.2031 10.3047 22.1719C11.0938 22.2891 11.8047 22.2891 12.6172 22.0781C10.2734 21.6016 8.51562 19.5391 8.51562 17.0469V16.9844C9.19531 17.3672 9.99219 17.6016 10.8281 17.6328C10.1253 17.1653 9.5492 16.5311 9.15115 15.7868C8.75309 15.0425 8.54549 14.2113 8.54688 13.3672C8.54688 12.4141 8.79688 11.5391 9.24219 10.7812C11.7656 13.8906 15.5547 15.9219 19.8047 16.1406C19.0781 12.6641 21.6797 9.84375 24.8047 9.84375C26.2812 9.84375 27.6094 10.4609 28.5469 11.4609C29.7031 11.2422 30.8125 10.8125 31.7969 10.2266C31.4141 11.4141 30.6094 12.4141 29.5469 13.0469C30.5781 12.9375 31.5781 12.6484 32.5 12.25C31.8047 13.2734 30.9297 14.1797 29.9297 14.9062Z" fill="#242424"/>
</svg>
